<svg xmlns="http://www.w3.org/2000/svg" xmlns:xlink="http://www.w3.org/1999/xlink" width="150" zoomAndPan="magnify" viewBox="0 0 112.5 112.499997" height="150" preserveAspectRatio="xMidYMid meet" version="1.0"><defs><clipPath id="adcac62255"><path d="M 10 0 L 102 0 L 102 112.003906 L 10 112.003906 Z M 10 0 " clip-rule="nonzero"/></clipPath></defs><g clip-path="url(#adcac62255)"><path fill="#000000" d="M 98.78125 38.65625 C 96.953125 39.777344 95.296875 41.105469 93.804688 42.648438 C 92.316406 44.1875 91.039062 45.890625 89.980469 47.757812 C 88.921875 49.621094 88.113281 51.589844 87.554688 53.660156 C 86.996094 55.730469 86.703125 57.835938 86.675781 59.980469 C 86.679688 61.179688 86.773438 62.375 86.949219 63.5625 C 87.128906 64.746094 87.390625 65.914062 87.738281 67.0625 C 88.085938 68.214844 88.515625 69.332031 89.027344 70.417969 C 89.539062 71.5 90.125 72.546875 90.789062 73.546875 C 91.453125 74.546875 92.183594 75.492188 92.984375 76.386719 C 93.785156 77.277344 94.648438 78.109375 95.570312 78.875 C 96.492188 79.644531 97.464844 80.339844 98.488281 80.964844 C 99.511719 81.589844 100.578125 82.136719 101.679688 82.605469 C 99.921875 88.289062 97.359375 93.582031 93.996094 98.488281 C 89.214844 105.378906 84.214844 112.269531 76.601562 112.269531 C 68.992188 112.269531 67.035156 107.84375 58.265625 107.84375 C 49.710938 107.84375 46.667969 112.414062 39.710938 112.414062 C 32.75 112.414062 27.894531 106.03125 22.316406 98.199219 C 18.628906 92.714844 15.792969 86.816406 13.808594 80.511719 C 11.820312 74.207031 10.769531 67.75 10.644531 61.140625 C 10.644531 39.382812 24.78125 27.851562 38.695312 27.851562 C 46.089844 27.851562 52.25 32.710938 56.886719 32.710938 C 61.308594 32.710938 68.195312 27.5625 76.601562 27.5625 C 78.765625 27.503906 80.898438 27.710938 83.011719 28.183594 C 85.121094 28.652344 87.144531 29.371094 89.078125 30.339844 C 91.011719 31.304688 92.796875 32.492188 94.441406 33.902344 C 96.082031 35.308594 97.53125 36.894531 98.78125 38.65625 Z M 72.617188 18.351562 C 74.46875 16.167969 75.90625 13.742188 76.925781 11.066406 C 77.945312 8.390625 78.492188 5.625 78.558594 2.761719 C 78.566406 2.003906 78.492188 1.257812 78.34375 0.515625 C 76.765625 0.667969 75.214844 0.96875 73.695312 1.417969 C 72.175781 1.867188 70.710938 2.453125 69.304688 3.179688 C 67.894531 3.90625 66.566406 4.757812 65.320312 5.738281 C 64.074219 6.71875 62.929688 7.804688 61.890625 9 C 60.019531 11.09375 58.554688 13.441406 57.496094 16.042969 C 56.4375 18.648438 55.847656 21.351562 55.726562 24.15625 C 55.730469 24.84375 55.804688 25.519531 55.945312 26.1875 C 56.449219 26.285156 56.957031 26.332031 57.46875 26.332031 C 58.933594 26.214844 60.375 25.953125 61.789062 25.542969 C 63.203125 25.132812 64.558594 24.585938 65.863281 23.898438 C 67.164062 23.214844 68.382812 22.402344 69.519531 21.46875 C 70.660156 20.535156 71.691406 19.496094 72.617188 18.351562 Z M 72.617188 18.351562 " fill-opacity="0.8" fill-rule="nonzero"/></g></svg>